<?xml version="1.0" encoding="utf-8"?>
<!-- Generator: Adobe Illustrator 23.0.4, SVG Export Plug-In . SVG Version: 6.00 Build 0)  -->
<svg version="1.1" id="Layer_1" xmlns="http://www.w3.org/2000/svg" xmlns:xlink="http://www.w3.org/1999/xlink" x="0px" y="0px"
	 viewBox="0 0 40 40" style="enable-background:new 0 0 40 40;" xml:space="preserve">
<path d="M40.56,38.32L30.73,21.3c0.54-0.2,1.12-0.3,1.76-0.3c2.46,0,3.64,1.44,5.14,3.26l0.41,0.5l1.99-1.64l-0.41-0.5
	c-1.62-1.97-3.45-4.21-7.13-4.21c-1.11,0-2.12,0.21-3.06,0.63L20.22,3.08L11,19.04c-0.94-0.42-1.94-0.63-3.06-0.63
	c-3.68,0-5.51,2.23-7.13,4.21l-0.41,0.5l1.99,1.64l0.41-0.5c1.5-1.82,2.68-3.26,5.14-3.26c0.64,0,1.22,0.1,1.76,0.3l-9.83,17.02
	H40.56z M25.36,22.62c-1.5,1.82-2.68,3.26-5.14,3.26s-3.64-1.44-5.14-3.26c-0.56-0.68-1.19-1.45-1.93-2.13l7.07-12.25l7.07,12.25
	C26.55,21.17,25.92,21.94,25.36,22.62z M13.08,24.26c1.62,1.97,3.46,4.21,7.13,4.21c3.68,0,5.51-2.23,7.13-4.21
	c0.41-0.5,0.83-1.01,1.27-1.46l7.48,12.95H4.34l7.48-12.95C12.25,23.25,12.67,23.76,13.08,24.26z"/>
</svg>
