<?xml version="1.0" encoding="utf-8"?>
<!-- Generator: Adobe Illustrator 23.0.4, SVG Export Plug-In . SVG Version: 6.00 Build 0)  -->
<svg version="1.1" id="Layer_1" xmlns="http://www.w3.org/2000/svg" xmlns:xlink="http://www.w3.org/1999/xlink" x="0px" y="0px"
	 viewBox="0 0 294 71" style="enable-background:new 0 0 294 71;" xml:space="preserve">
<style type="text/css">
	.st0{fill:#FFFFFF;}
</style>
<path class="st0" d="M64.7,64.3L49,37c0.9-0.3,1.8-0.5,2.8-0.5c3.9,0,5.8,2.3,8.2,5.2l0.7,0.8l3.2-2.6l-0.7-0.8
	c-2.6-3.2-5.5-6.7-11.4-6.7c-1.8,0-3.4,0.3-4.9,1L32.1,7.9L17.4,33.4c-1.5-0.7-3.1-1-4.9-1c-5.9,0-8.8,3.6-11.4,6.7l-0.7,0.8
	l3.2,2.6l0.7-0.8c2.4-2.9,4.3-5.2,8.2-5.2c1,0,1.9,0.2,2.8,0.5L-0.4,64.3H64.7z M40.4,39.1c-2.4,2.9-4.3,5.2-8.2,5.2
	s-5.8-2.3-8.2-5.2C23,38,22,36.8,20.8,35.7l11.3-19.6l11.3,19.6C42.3,36.8,41.3,38,40.4,39.1z M20.7,41.8c2.6,3.2,5.5,6.7,11.4,6.7
	c5.9,0,8.8-3.6,11.4-6.7c0.7-0.8,1.3-1.6,2-2.3l12,20.7H6.7l12-20.7C19.4,40.1,20.1,41,20.7,41.8z"/>
<g>
	<g>
		<g>
			<path class="st0" d="M102.7,11.6c7.4,0,13.4,6,13.4,13.4s-5.9,13.3-13.4,13.3c-7.4,0-13.3-5.9-13.3-13.3S95.3,11.6,102.7,11.6z
				 M102.7,33.5c4.7,0,8.6-3.8,8.6-8.5s-3.9-8.6-8.6-8.6c-4.7,0-8.5,3.9-8.5,8.6C94.2,29.7,98,33.5,102.7,33.5z"/>
			<path class="st0" d="M137.1,12.2c0-0.3,0.3-0.6,0.7-0.6h0.6c0.3,0,0.5,0.1,0.6,0.4l8.2,17.5c0.1,0,0.1,0,0.1,0l8.2-17.5
				c0.1-0.2,0.3-0.4,0.6-0.4h0.6c0.4,0,0.6,0.3,0.7,0.6l4.4,25c0.1,0.5-0.2,0.9-0.7,0.9h-3.4c-0.3,0-0.6-0.3-0.7-0.6l-2.2-14.1
				c0,0-0.1,0-0.1,0l-6.5,14.6c-0.1,0.2-0.3,0.4-0.6,0.4h-0.7c-0.3,0-0.5-0.2-0.6-0.4l-6.6-14.6c0,0-0.1,0-0.1,0l-2.2,14.1
				c0,0.3-0.3,0.6-0.7,0.6h-3.3c-0.5,0-0.8-0.3-0.7-0.9L137.1,12.2z"/>
			<path class="st0" d="M191.7,11.6c7.4,0,13.4,6,13.4,13.4s-6,13.3-13.4,13.3c-7.4,0-13.3-5.9-13.3-13.3S184.2,11.6,191.7,11.6z
				 M191.7,33.5c4.7,0,8.6-3.8,8.6-8.5s-3.9-8.6-8.6-8.6c-4.7,0-8.5,3.9-8.5,8.6C183.2,29.7,187,33.5,191.7,33.5z"/>
			<path class="st0" d="M226.1,12.2c0-0.3,0.3-0.6,0.7-0.6h0.6c0.3,0,0.5,0.1,0.6,0.4l8.2,17.5c0.1,0,0.1,0,0.1,0l8.2-17.5
				c0.1-0.2,0.3-0.4,0.6-0.4h0.6c0.4,0,0.6,0.3,0.7,0.6l4.4,25c0.1,0.5-0.2,0.9-0.7,0.9h-3.4c-0.3,0-0.6-0.3-0.7-0.6l-2.2-14.1
				c0,0-0.1,0-0.1,0l-6.5,14.6c0,0.2-0.2,0.4-0.6,0.4h-0.7c-0.3,0-0.5-0.2-0.6-0.4l-6.6-14.6c0,0-0.1,0-0.1,0l-2.2,14.1
				c0,0.3-0.3,0.6-0.7,0.6h-3.3c-0.5,0-0.8-0.3-0.7-0.9L226.1,12.2z"/>
			<path class="st0" d="M280.6,11.6c7.4,0,13.4,6,13.4,13.4s-5.9,13.3-13.4,13.3c-7.4,0-13.3-5.9-13.3-13.3S273.2,11.6,280.6,11.6z
				 M280.6,33.5c4.7,0,8.6-3.8,8.6-8.5s-3.9-8.6-8.6-8.6c-4.7,0-8.5,3.9-8.5,8.6C272.1,29.7,275.9,33.5,280.6,33.5z"/>
		</g>
	</g>
	<g>
		<path class="st0" d="M95.1,54.3h-2.6c-0.2,0-0.3-0.1-0.3-0.3v-0.9c0-0.2,0.1-0.3,0.3-0.3h6.9c0.2,0,0.3,0.1,0.3,0.3V54
			c0,0.2-0.1,0.3-0.3,0.3h-2.6v9.5c0,0.2-0.1,0.3-0.3,0.3h-1.1c-0.2,0-0.3-0.1-0.3-0.3C95.1,63.8,95.1,54.3,95.1,54.3z"/>
		<path class="st0" d="M113.1,53.1c0-0.2,0.1-0.3,0.3-0.3h6.4c0.2,0,0.3,0.1,0.3,0.3V54c0,0.2-0.1,0.3-0.3,0.3h-5.1v3.3h4.3
			c0.2,0,0.3,0.1,0.3,0.3v0.9c0,0.2-0.1,0.3-0.3,0.3h-4.3v3.5h5.1c0.2,0,0.3,0.1,0.3,0.3v0.9c0,0.2-0.1,0.3-0.3,0.3h-6.4
			c-0.2,0-0.3-0.1-0.3-0.3V53.1z"/>
		<path class="st0" d="M132.6,63.7l4.9-10.8c0-0.1,0.2-0.2,0.3-0.2h0.2c0.1,0,0.2,0.1,0.3,0.2l4.9,10.8c0.1,0.2,0,0.4-0.3,0.4h-1
			c-0.2,0-0.3-0.1-0.4-0.2l-1-2.2h-5.3c-0.3,0.7-0.7,1.5-1,2.2c0,0.1-0.2,0.2-0.4,0.2h-1C132.7,64.1,132.5,63.9,132.6,63.7z
			 M139.9,60.3l-2-4.4h-0.1l-2,4.4H139.9z"/>
		<path class="st0" d="M170.8,62.5c0.1-0.2,0.3-0.5,0.4-0.7c0.1-0.2,0.4-0.3,0.5-0.1c0.1,0.1,1.3,1.1,2.6,1.1c1.1,0,1.8-0.7,1.8-1.5
			c0-1-0.8-1.6-2.4-2.2c-1.6-0.7-2.9-1.5-2.9-3.4c0-1.3,1-3,3.5-3c1.6,0,2.8,0.8,3,0.9c0.1,0.1,0.3,0.3,0.1,0.5
			c-0.1,0.2-0.3,0.4-0.4,0.6c-0.1,0.2-0.3,0.3-0.6,0.2c-0.1-0.1-1.2-0.8-2.2-0.8c-1.4,0-1.8,0.9-1.8,1.4c0,0.9,0.7,1.5,2,2
			c1.9,0.8,3.5,1.6,3.5,3.6c0,1.7-1.5,3-3.6,3c-2,0-3.2-1-3.5-1.3C170.7,62.9,170.6,62.7,170.8,62.5z"/>
		<path class="st0" d="M191.7,53.1c0-0.2,0.1-0.3,0.3-0.3h1.1c0.2,0,0.3,0.1,0.3,0.3v4.5h5.9v-4.5c0-0.2,0.1-0.3,0.3-0.3h1.1
			c0.2,0,0.3,0.1,0.3,0.3v10.7c0,0.2-0.1,0.3-0.3,0.3h-1.1c-0.2,0-0.3-0.1-0.3-0.3v-4.7h-5.9v4.7c0,0.2-0.1,0.3-0.3,0.3H192
			c-0.2,0-0.3-0.1-0.3-0.3V53.1z"/>
		<path class="st0" d="M220.7,52.7c3.2,0,5.8,2.6,5.8,5.8c0,3.2-2.6,5.8-5.8,5.8s-5.8-2.6-5.8-5.8C214.9,55.3,217.4,52.7,220.7,52.7
			z M220.7,62.6c2.3,0,4.2-1.9,4.2-4.2c0-2.3-1.9-4.2-4.2-4.2c-2.3,0-4.2,1.9-4.2,4.2C216.5,60.8,218.4,62.6,220.7,62.6z"/>
		<path class="st0" d="M240.3,53.1c0-0.2,0.1-0.3,0.3-0.3h3.7c2,0,3.6,1.6,3.6,3.6c0,2-1.6,3.6-3.6,3.6H242v3.8
			c0,0.2-0.1,0.3-0.3,0.3h-1c-0.2,0-0.3-0.1-0.3-0.3V53.1z M244.2,58.4c1.1,0,2-0.9,2-2.1c0-1.1-0.9-1.9-2-1.9H242v4
			C242,58.4,244.2,58.4,244.2,58.4z"/>
		<path class="st0" d="M261.5,53.1c0-0.2,0.1-0.3,0.3-0.3h3.7c2,0,3.6,1.6,3.6,3.6c0,2-1.6,3.6-3.6,3.6h-2.3v3.8
			c0,0.2-0.1,0.3-0.3,0.3h-1c-0.2,0-0.3-0.1-0.3-0.3V53.1z M265.4,58.4c1.1,0,2-0.9,2-2.1c0-1.1-0.9-1.9-2-1.9h-2.2v4
			C263.1,58.4,265.4,58.4,265.4,58.4z"/>
		<path class="st0" d="M282.6,53.1c0-0.2,0.1-0.3,0.3-0.3h6.4c0.2,0,0.3,0.1,0.3,0.3V54c0,0.2-0.1,0.3-0.3,0.3h-5.1v3.3h4.3
			c0.2,0,0.3,0.1,0.3,0.3v0.9c0,0.2-0.1,0.3-0.3,0.3h-4.3v3.5h5.1c0.2,0,0.3,0.1,0.3,0.3v0.9c0,0.2-0.1,0.3-0.3,0.3h-6.4
			c-0.2,0-0.3-0.1-0.3-0.3V53.1z"/>
	</g>
</g>
</svg>
